<svg xmlns="http://www.w3.org/2000/svg" width="512" height="512" viewBox="0 0 512 512" role="img" aria-labelledby="title desc">
  <title>ROS2-Agent Logo</title>
  <desc>Hexagonal dark logo with robot face and signal rings representing ROS2-Agent.</desc>
  <defs>
    <linearGradient id="bg" x1="0%" y1="0%" x2="100%" y2="100%">
      <stop offset="0%" stop-color="#0f172a"/>
      <stop offset="100%" stop-color="#111827"/>
    </linearGradient>
    <linearGradient id="accent" x1="0%" y1="0%" x2="100%" y2="100%">
      <stop offset="0%" stop-color="#38bdf8"/>
      <stop offset="100%" stop-color="#22c55e"/>
    </linearGradient>
  </defs>
  <rect width="512" height="512" rx="96" fill="url(#bg)"/>
  <polygon points="256,92 372,159 372,293 256,360 140,293 140,159" fill="none" stroke="url(#accent)" stroke-width="18"/>
  <rect x="178" y="184" width="156" height="108" rx="24" fill="#e5f3ff" opacity="0.98"/>
  <circle cx="222" cy="228" r="14" fill="#0f172a"/>
  <circle cx="290" cy="228" r="14" fill="#0f172a"/>
  <path d="M214 268 Q256 294 298 268" fill="none" stroke="#0f172a" stroke-width="10" stroke-linecap="round"/>
  <path d="M256 152 L256 184" stroke="#38bdf8" stroke-width="12" stroke-linecap="round"/>
  <circle cx="256" cy="140" r="14" fill="#22c55e"/>
  <circle cx="406" cy="176" r="14" fill="#38bdf8" opacity="0.95"/>
  <circle cx="436" cy="152" r="10" fill="#38bdf8" opacity="0.7"/>
  <circle cx="106" cy="332" r="14" fill="#22c55e" opacity="0.95"/>
  <circle cx="78" cy="356" r="10" fill="#22c55e" opacity="0.7"/>
</svg>
